<svg width="512" height="512" viewBox="0 0 512 512" fill="none" xmlns="http://www.w3.org/2000/svg">
<path d="M511.999 255.999C511.999 397.384 397.384 511.999 255.999 511.999C114.615 511.999 0 397.384 0 255.999C0 114.615 114.615 0 255.999 0C397.384 0 511.999 114.615 511.999 255.999Z" fill="#4584FF"/>
<path d="M152.516 312.123C85.3858 348.53 60.0189 437.546 125.765 476.396V476.396C165.69 499.989 211.274 512.293 257.648 511.995C304.021 511.696 349.443 498.807 389.061 474.703C428.68 450.599 461.006 416.186 482.588 375.139C504.171 334.093 514.198 287.955 511.598 241.653C508.999 195.351 493.872 150.625 467.831 112.252C441.791 73.8784 405.816 43.2994 363.749 23.7807V23.7807C294.476 -8.36173 235.52 62.9929 243.579 138.934L246.229 163.908C252.143 219.638 223.858 273.433 174.593 300.151L152.516 312.123Z" fill="#489CFF"/>
</svg>
